<svg width="234" height="90" viewBox="0 0 234 90" fill="none" xmlns="http://www.w3.org/2000/svg">
<rect width="234" height="90" rx="4" fill="#353945"/>
<path d="M111.505 49.3592L111.493 49.3709C111.336 49.0267 111.237 48.6359 111.196 48.2042C111.237 48.63 111.347 49.015 111.505 49.3592Z" fill="white"/>
<path d="M115.25 44.325C116.017 44.325 116.638 43.7034 116.638 42.9367C116.638 42.1699 116.017 41.5484 115.25 41.5484C114.483 41.5484 113.862 42.1699 113.862 42.9367C113.862 43.7034 114.483 44.325 115.25 44.325Z" fill="white"/>
<path d="M119.444 39.4367H114.556C112.432 39.4367 111.167 40.7025 111.167 42.8259V47.7142C111.167 48.35 111.277 48.9042 111.493 49.3709C111.995 50.4792 113.068 51.1034 114.556 51.1034H119.444C121.567 51.1034 122.833 49.8375 122.833 47.7142V46.3784V42.8259C122.833 40.7025 121.567 39.4367 119.444 39.4367ZM121.882 45.5617C121.427 45.1709 120.692 45.1709 120.237 45.5617L117.811 47.6442C117.356 48.035 116.621 48.035 116.166 47.6442L115.967 47.4809C115.553 47.1192 114.894 47.0842 114.427 47.3992L112.246 48.8634C112.117 48.5367 112.042 48.1575 112.042 47.7142V42.8259C112.042 41.1809 112.911 40.3117 114.556 40.3117H119.444C121.089 40.3117 121.958 41.1809 121.958 42.8259V45.6259L121.882 45.5617Z" fill="white"/>
</svg>
