<svg width="20" height="20" viewBox="0 0 20 20" fill="none" xmlns="http://www.w3.org/2000/svg">
<path fill-rule="evenodd" clip-rule="evenodd" d="M11 5.83333C11 5.28104 10.5523 4.83333 10 4.83333C9.44776 4.83333 9.00004 5.28104 9.00004 5.83333V9H5.83337C5.28109 9 4.83337 9.44771 4.83337 10C4.83337 10.5523 5.28109 11 5.83337 11H9.00004V14.1667C9.00004 14.7189 9.44776 15.1667 10 15.1667C10.5523 15.1667 11 14.7189 11 14.1667V11H14.1667C14.719 11 15.1667 10.5523 15.1667 10C15.1667 9.44771 14.719 9 14.1667 9H11V5.83333Z" fill="#353945"/>
</svg>
